<svg xmlns="http://www.w3.org/2000/svg" viewBox="0 0 63 75.1"><path fill="#81b3d2" d="M60.2 22.2H35.8C49.4 15.4 50.5 11.1 50 8.7c-1.1-3.9-5.6-6.9-9.8-5.3-5.5 2.1-7 10.3-8.5 16.2-1.9-6-3.7-13.6-8-17.5-1.2-1.1-3-2.2-5.7-2-4 .4-9.7 5.3-7.3 10.8 2.2 5.3 9.5 8.7 14.4 11.4H2.8c-1.6 0-2.8 1.3-2.8 2.8v11.2c0 1.6 1.3 2.8 2.8 2.8h.3v36h57v-36h.1c1.6 0 2.8-1.3 2.8-2.8V25.1c0-1.6-1.3-2.9-2.8-2.9zM41.8 5.9c2.1-.3 4.9 1.3 5.2 3.2.4 2.7-3.3 5.2-5 6.3-2.5 1.7-4.9 2.6-7.2 4 .8-3.7 2.5-12.9 7-13.5zm-22.6 9.8c-2.2-1.5-6.4-4.4-6.3-7.7.1-3.6 5.7-6.5 8.7-3.8 3.8 3.3 5.6 11 7 16.4-3.2-1.6-6.2-2.8-9.4-4.9zm5.9 56.4H6v-33h19.1v33zm0-36H3V25.2h22.1v10.9zm10 36H28V25.2h7.1v46.9zm22 0h-19v-33h19.1v33zm2.9-36H38.1V25.2H60v10.9z"/></svg>